<svg xmlns="http://www.w3.org/2000/svg" viewBox="0 0 32 32">
  <!-- Warm-black tile (theme base-100). -->
  <rect width="32" height="32" fill="#0e0c0a"/>
  <g transform="translate(6.5000 9.6914) scale(0.024740 -0.024740) translate(-16 -510)">
    <!-- Dark extruded edge gives the w depth without lightening the brand colour. -->
    <path d="M171.9996337890625 0 15.9996337890625 510H148.33453369140625L240.33367919921875 127.00164794921875H231.00067138671875L344.33306884765625 510H459.3345947265625L573.6669921875 127.00164794921875H564.333984375L655.3331298828125 510H783.6680297851562L627.6680297851562 0H509.999755859375L395.333984375 378.99853515625H405.00030517578125L289.66790771484375 0Z" fill="#522d0a" transform="translate(10 -10)"/>
    <!-- Brand "w" (Instrument Sans 600) in primary amber, outlined to a path so it renders with no font dependency; see static/CLAUDE.md. -->
    <path d="M171.9996337890625 0 15.9996337890625 510H148.33453369140625L240.33367919921875 127.00164794921875H231.00067138671875L344.33306884765625 510H459.3345947265625L573.6669921875 127.00164794921875H564.333984375L655.3331298828125 510H783.6680297851562L627.6680297851562 0H509.999755859375L395.333984375 378.99853515625H405.00030517578125L289.66790771484375 0Z" fill="#c97d2e"/>
  </g>
</svg>
